<svg aria-hidden="true" style="position: absolute; width: 0; height: 0; overflow: hidden;" version="1.1"
     xmlns="http://www.w3.org/2000/svg" xmlns:xlink="http://www.w3.org/1999/xlink">
    <defs>
        <symbol id="message-question" viewBox="0 0 25 25">
            <path fill="#9197b3" style="fill: var(--currentColor, #9197b3)"
                  d="M8.333 23.25c-0.292 0-0.594-0.073-0.865-0.219-0.594-0.313-0.958-0.938-0.958-1.604v-1.479c-3.146-0.323-5.208-2.636-5.208-5.948v-6.25c0-3.583 2.406-5.99 5.99-5.99h10.417c3.583 0 5.99 2.406 5.99 5.99v6.25c0 3.583-2.406 5.99-5.99 5.99h-3.927l-4.438 2.958c-0.302 0.198-0.656 0.302-1.010 0.302zM7.292 3.312c-2.688 0-4.427 1.74-4.427 4.427v6.25c0 2.688 1.74 4.427 4.427 4.427 0.427 0 0.781 0.354 0.781 0.781v2.219c0 0.135 0.083 0.198 0.135 0.229s0.156 0.062 0.271-0.010l4.635-3.083c0.125-0.083 0.281-0.135 0.438-0.135h4.167c2.688 0 4.427-1.74 4.427-4.427v-6.25c0-2.687-1.74-4.427-4.427-4.427h-10.427z"></path>
            <path fill="#9197b3" style="fill: var(--currentColor, #9197b3)"
                  d="M12.5 12.614c-0.427 0-0.781-0.354-0.781-0.781v-0.219c0-1.208 0.885-1.802 1.219-2.031 0.385-0.26 0.51-0.438 0.51-0.708 0-0.521-0.427-0.948-0.948-0.948s-0.948 0.427-0.948 0.948c0 0.427-0.354 0.781-0.781 0.781s-0.781-0.354-0.781-0.781c0-1.385 1.125-2.51 2.51-2.51s2.51 1.125 2.51 2.51c0 1.187-0.875 1.781-1.198 2-0.406 0.271-0.531 0.448-0.531 0.74v0.219c0 0.438-0.354 0.781-0.781 0.781z"></path>
            <path fill="#9197b3" style="fill: var(--currentColor, #9197b3)"
                  d="M12.5 15.208c-0.438 0-0.781-0.354-0.781-0.781s0.354-0.781 0.781-0.781c0.427 0 0.781 0.354 0.781 0.781s-0.344 0.781-0.781 0.781z"></path>
        </symbol>
        <symbol id="discount-shape" viewBox="0 0 25 25">
            <path fill="#9197b3" style="fill: var(--currentColor, #9197b3)"
                  d="M12.5 23.698c-0.656 0-1.271-0.25-1.729-0.719l-1.583-1.583c-0.125-0.125-0.458-0.26-0.625-0.26h-2.25c-1.354 0-2.448-1.094-2.448-2.448v-2.25c0-0.167-0.135-0.5-0.26-0.625l-1.583-1.583c-0.458-0.458-0.719-1.073-0.719-1.729s0.25-1.271 0.719-1.729l1.583-1.583c0.125-0.125 0.26-0.458 0.26-0.625v-2.25c0-1.354 1.094-2.448 2.448-2.448h2.25c0.167 0 0.5-0.135 0.625-0.26l1.583-1.583c0.917-0.917 2.542-0.917 3.458 0l1.583 1.583c0.125 0.125 0.458 0.26 0.625 0.26h2.25c1.354 0 2.448 1.094 2.448 2.448v2.25c0 0.167 0.135 0.5 0.26 0.625l1.583 1.583c0.458 0.458 0.719 1.073 0.719 1.729s-0.25 1.271-0.719 1.729l-1.583 1.583c-0.125 0.125-0.26 0.458-0.26 0.625v2.25c0 1.354-1.094 2.448-2.448 2.448h-2.25c-0.167 0-0.5 0.135-0.625 0.26l-1.583 1.583c-0.458 0.469-1.073 0.719-1.729 0.719zM4.708 14.709c0.417 0.417 0.719 1.146 0.719 1.729v2.25c0 0.49 0.396 0.886 0.885 0.886h2.25c0.583 0 1.313 0.302 1.729 0.719l1.583 1.583c0.333 0.333 0.917 0.333 1.25 0l1.583-1.583c0.417-0.417 1.146-0.719 1.729-0.719h2.25c0.49 0 0.885-0.396 0.885-0.886v-2.25c0-0.583 0.302-1.313 0.719-1.729l1.583-1.583c0.167-0.167 0.26-0.385 0.26-0.625s-0.094-0.458-0.26-0.625l-1.583-1.583c-0.417-0.417-0.719-1.146-0.719-1.729v-2.25c0-0.49-0.396-0.886-0.885-0.886h-2.25c-0.583 0-1.313-0.302-1.729-0.719l-1.583-1.583c-0.333-0.333-0.917-0.333-1.25 0l-1.583 1.583c-0.417 0.417-1.146 0.719-1.729 0.719h-2.25c-0.49 0-0.885 0.396-0.885 0.886v2.25c0 0.583-0.302 1.313-0.719 1.729l-1.583 1.583c-0.167 0.167-0.26 0.385-0.26 0.625s0.094 0.458 0.26 0.625l1.583 1.583z"></path>
            <path fill="#9197b3" style="fill: var(--currentColor, #9197b3)"
                  d="M15.625 16.667c-0.583 0-1.052-0.469-1.052-1.042s0.469-1.042 1.042-1.042c0.573 0 1.042 0.469 1.042 1.042s-0.458 1.042-1.031 1.042z"></path>
            <path fill="#9197b3" style="fill: var(--currentColor, #9197b3)"
                  d="M9.385 10.417c-0.583 0-1.052-0.469-1.052-1.042s0.469-1.042 1.042-1.042c0.573 0 1.042 0.469 1.042 1.042s-0.458 1.042-1.031 1.042z"></path>
            <path fill="#9197b3" style="fill: var(--currentColor, #9197b3)"
                  d="M9.374 16.406c-0.198 0-0.396-0.073-0.552-0.229-0.302-0.302-0.302-0.802 0-1.104l6.25-6.25c0.302-0.302 0.802-0.302 1.104 0s0.302 0.802 0 1.104l-6.25 6.25c-0.156 0.156-0.354 0.229-0.552 0.229z"></path>
        </symbol>
        <symbol id="wallet-money" viewBox="0 0 25 25">
            <path fill="none" stroke="#9197b3" stroke-width="1.5625" stroke-miterlimit="4" stroke-linecap="round"
                  stroke-linejoin="round" style="stroke: var(--currentColor, #9197b3)"
                  d="M11.2 17.563v2.115c0 1.792-1.667 3.24-3.719 3.24s-3.729-1.448-3.729-3.24v-2.115c0 1.792 1.667 3.063 3.729 3.063 2.052 0 3.719-1.281 3.719-3.063z"></path>
            <path fill="none" stroke="#9197b3" stroke-width="1.5625" stroke-miterlimit="4" stroke-linecap="round"
                  stroke-linejoin="round" style="stroke: var(--currentColor, #9197b3)"
                  d="M11.198 14.698c0 0.521-0.146 1-0.396 1.417-0.615 1.010-1.875 1.646-3.333 1.646s-2.719-0.646-3.333-1.646c-0.25-0.417-0.396-0.896-0.396-1.417 0-0.896 0.417-1.698 1.083-2.281 0.677-0.594 1.604-0.948 2.635-0.948s1.958 0.365 2.635 0.948c0.688 0.573 1.104 1.385 1.104 2.281z"></path>
            <path fill="none" stroke="#9197b3" stroke-width="1.5625" stroke-miterlimit="4" stroke-linecap="round"
                  stroke-linejoin="round" style="stroke: var(--currentColor, #9197b3)"
                  d="M11.2 14.698v2.865c0 1.792-1.667 3.063-3.719 3.063s-3.729-1.281-3.729-3.063v-2.865c0-1.792 1.667-3.24 3.729-3.24 1.031 0 1.958 0.365 2.635 0.948 0.667 0.583 1.083 1.396 1.083 2.292z"></path>
            <path fill="none" stroke="#9197b3" stroke-width="1.5625" stroke-miterlimit="4" stroke-linecap="round"
                  stroke-linejoin="round" style="stroke: var(--currentColor, #9197b3)"
                  d="M22.917 11.427v2.146c0 0.573-0.458 1.042-1.042 1.062h-2.042c-1.125 0-2.156-0.823-2.25-1.948-0.063-0.656 0.187-1.271 0.625-1.698 0.385-0.396 0.917-0.625 1.5-0.625h2.167c0.583 0.021 1.042 0.49 1.042 1.062z"></path>
            <path fill="none" stroke="#9197b3" stroke-width="1.5625" stroke-miterlimit="4" stroke-linecap="round"
                  stroke-linejoin="round" style="stroke: var(--currentColor, #9197b3)"
                  d="M2.083 10.938v-2.083c0-2.833 1.708-4.813 4.365-5.146 0.271-0.042 0.552-0.063 0.844-0.063h9.375c0.271 0 0.531 0.010 0.781 0.052 2.688 0.313 4.427 2.302 4.427 5.156v1.51h-2.167c-0.583 0-1.115 0.229-1.5 0.625-0.437 0.427-0.687 1.042-0.625 1.698 0.094 1.125 1.125 1.948 2.25 1.948h2.042v1.51c0 3.125-2.083 5.208-5.208 5.208h-2.604"></path>
        </symbol>
        <symbol id="user-square" viewBox="0 0 25 25">
            <path fill="#fff" style="fill: var(--currentColor, #9197b3)"
                  d="M15.626 23.698h-6.25c-1.375 0-2.521-0.135-3.49-0.427-0.354-0.104-0.583-0.448-0.563-0.813 0.26-3.115 3.417-5.563 7.177-5.563s6.906 2.438 7.177 5.563c0.031 0.375-0.198 0.708-0.563 0.813-0.969 0.292-2.115 0.427-3.49 0.427zM7.001 21.937c0.688 0.135 1.469 0.198 2.375 0.198h6.25c0.906 0 1.688-0.063 2.375-0.198-0.552-2-2.833-3.479-5.5-3.479s-4.948 1.479-5.5 3.479z"></path>
            <path fill="none" stroke="#fff" stroke-width="1.5625" stroke-miterlimit="4" stroke-linecap="round"
                  stroke-linejoin="round" style="stroke: var(--currentColor, #9197b3)"
                  d="M15.625 2.083h-6.25c-5.208 0-7.292 2.083-7.292 7.292v6.25c0 3.938 1.187 6.094 4.021 6.896 0.229-2.708 3.010-4.844 6.396-4.844s6.167 2.135 6.396 4.844c2.833-0.802 4.021-2.958 4.021-6.896v-6.25c0-5.208-2.083-7.292-7.292-7.292zM12.5 14.76c-2.063 0-3.729-1.677-3.729-3.74s1.667-3.729 3.729-3.729c2.063 0 3.729 1.667 3.729 3.729s-1.667 3.74-3.729 3.74z"></path>
            <path fill="#fff" style="fill: var(--currentColor, #9197b3)"
                  d="M12.5 15.542c-2.49 0-4.51-2.031-4.51-4.521s2.021-4.51 4.51-4.51c2.49 0 4.51 2.021 4.51 4.51s-2.021 4.521-4.51 4.521zM12.5 8.073c-1.625 0-2.948 1.323-2.948 2.948 0 1.635 1.323 2.958 2.948 2.958s2.948-1.323 2.948-2.958c0-1.625-1.323-2.948-2.948-2.948z"></path>
        </symbol>
        <symbol id="3d-square" viewBox="0 0 25 25">
            <path fill="#9197b3" style="fill: var(--currentColor, #9197b3)"
                  d="M15.625 23.698h-6.25c-5.656 0-8.073-2.417-8.073-8.073v-6.25c0-5.656 2.417-8.073 8.073-8.073h6.25c5.656 0 8.073 2.417 8.073 8.073v6.25c0 5.656-2.417 8.073-8.073 8.073zM9.375 2.865c-4.802 0-6.51 1.708-6.51 6.51v6.25c0 4.802 1.708 6.51 6.51 6.51h6.25c4.802 0 6.51-1.708 6.51-6.51v-6.25c0-4.802-1.708-6.51-6.51-6.51h-6.25z"></path>
            <path fill="#9197b3" style="fill: var(--currentColor, #9197b3)"
                  d="M12.501 13.625c-0.135 0-0.271-0.031-0.396-0.104l-5.521-3.188c-0.375-0.219-0.5-0.698-0.281-1.062 0.219-0.375 0.698-0.5 1.063-0.281l5.125 2.969 5.094-2.948c0.375-0.219 0.854-0.083 1.063 0.281s0.083 0.854-0.281 1.062l-5.479 3.167c-0.115 0.063-0.25 0.104-0.385 0.104z"></path>
            <path fill="#9197b3" style="fill: var(--currentColor, #9197b3)"
                  d="M12.5 19.292c-0.427 0-0.781-0.354-0.781-0.781v-5.667c0-0.427 0.354-0.781 0.781-0.781s0.781 0.354 0.781 0.781v5.667c0 0.427-0.354 0.781-0.781 0.781z"></path>
            <path fill="#9197b3" style="fill: var(--currentColor, #9197b3)"
                  d="M12.5 19.531c-0.604 0-1.198-0.135-1.677-0.396l-3.333-1.854c-1-0.552-1.771-1.875-1.771-3.021v-3.531c0-1.135 0.781-2.458 1.771-3.021l3.333-1.854c0.958-0.531 2.396-0.531 3.354 0l3.333 1.854c1 0.552 1.771 1.875 1.771 3.021v3.531c0 1.135-0.781 2.458-1.771 3.021l-3.333 1.854c-0.479 0.271-1.073 0.396-1.677 0.396zM12.5 7.031c-0.344 0-0.677 0.063-0.917 0.198l-3.333 1.854c-0.51 0.281-0.969 1.073-0.969 1.646v3.531c0 0.583 0.458 1.365 0.969 1.646l3.333 1.854c0.479 0.271 1.354 0.271 1.833 0l3.333-1.854c0.51-0.281 0.969-1.073 0.969-1.646v-3.531c0-0.583-0.458-1.365-0.969-1.646l-3.333-1.854c-0.24-0.135-0.573-0.198-0.917-0.198z"></path>
        </symbol>
        <symbol id="key-square" viewBox="0 0 25 25">
            <path fill="none" stroke="#9197b3" stroke-width="1.5625" stroke-miterlimit="4" stroke-linecap="round"
                  stroke-linejoin="round" style="stroke: var(--currentColor, #9197b3)"
                  d="M9.375 22.917h6.25c5.208 0 7.292-2.083 7.292-7.292v-6.25c0-5.208-2.083-7.292-7.292-7.292h-6.25c-5.208 0-7.292 2.083-7.292 7.292v6.25c0 5.208 2.083 7.292 7.292 7.292z"></path>
            <path fill="none" stroke="#9197b3" stroke-width="1.5625" stroke-miterlimit="10" stroke-linecap="round"
                  stroke-linejoin="round" style="stroke: var(--currentColor, #9197b3)"
                  d="M16.958 14.177c-1.177 1.177-2.865 1.542-4.354 1.073l-2.698 2.688c-0.188 0.198-0.573 0.323-0.854 0.281l-1.25-0.167c-0.417-0.052-0.792-0.448-0.854-0.854l-0.167-1.25c-0.042-0.271 0.094-0.656 0.281-0.854l2.687-2.688c-0.458-1.49-0.104-3.177 1.073-4.354 1.688-1.688 4.438-1.688 6.135 0 1.688 1.677 1.688 4.427 0 6.125z"></path>
            <path fill="none" stroke="#9197b3" stroke-width="1.5625" stroke-miterlimit="10" stroke-linecap="round"
                  stroke-linejoin="round" style="stroke: var(--currentColor, #9197b3)" d="M10.885 16.958l-0.885-0.896"></path>
            <path fill="none" stroke="#9197b3" stroke-width="2.0833" stroke-miterlimit="4" stroke-linecap="round"
                  stroke-linejoin="round" style="stroke: var(--currentColor, #9197b3)" d="M13.953 11.146h0.009"></path>
        </symbol>
    </defs>
</svg>
